<svg data-v-423bf9ae="" xmlns="http://www.w3.org/2000/svg" viewBox="0 0 241.82555323026233 178" class="iconAbove"><!----><!----><!----><g data-v-423bf9ae="" id="d5844e01-73c3-40a3-bfa7-8e26a6f97f19" fill="#ECEBE7" transform="matrix(6.085192680358887,0,0,6.085192680358887,-1.8863977193832397,93.58274841308594)"><path d="M4.27 9.66L7.70 3.92L7.08 3.92L4.03 9.13L0.92 3.92L0.31 3.92L3.74 9.66L3.74 13.58L4.27 13.58ZM10.99 6.01C8.81 6.01 7.48 7.62 7.48 9.90C7.48 12.17 8.81 13.78 10.99 13.78C13.17 13.78 14.50 12.17 14.50 9.90C14.50 7.62 13.17 6.01 10.99 6.01ZM10.99 13.33C9.42 13.33 8.06 12.18 8.06 9.90C8.06 7.60 9.42 6.45 10.99 6.45C12.56 6.45 13.93 7.60 13.93 9.90C13.93 12.18 12.56 13.33 10.99 13.33ZM25.41 8.16C25.26 6.82 24.51 6.01 23.18 6.01C22.44 6.01 21.81 6.27 21.34 6.83L20.85 7.78C20.59 6.66 19.88 6.01 18.69 6.01C17.95 6.01 17.30 6.27 16.83 6.83L16.46 7.64L16.46 6.20L15.93 6.20L15.93 13.58L16.46 13.58L16.46 9.49C16.46 7.35 17.42 6.45 18.56 6.45C19.68 6.45 20.24 7.20 20.38 8.34C20.43 8.72 20.44 9.06 20.44 9.62L20.44 13.58L20.97 13.58L20.97 9.49C20.97 7.35 21.91 6.45 23.07 6.45C24.19 6.45 24.75 7.20 24.88 8.34C24.92 8.72 24.93 9.06 24.93 9.62L24.93 13.58L25.47 13.58L25.47 9.38C25.47 8.78 25.45 8.54 25.41 8.16ZM27.69 4.26C27.47 4.26 27.29 4.44 27.29 4.66C27.29 4.89 27.47 5.07 27.69 5.07C27.92 5.07 28.10 4.89 28.10 4.66C28.10 4.44 27.92 4.26 27.69 4.26ZM27.96 13.58L27.96 6.20L27.43 6.20L27.43 13.58ZM29.96 12.91C29.72 12.91 29.53 13.09 29.53 13.34C29.53 13.59 29.72 13.78 29.96 13.78C30.21 13.78 30.39 13.59 30.39 13.34C30.39 13.09 30.21 12.91 29.96 12.91ZM36.95 13.58L37.49 13.58C37.41 12.64 37.37 12.10 37.37 11.33L37.37 8.92C37.37 8.55 37.37 8.32 37.34 7.95C37.23 6.72 36.44 6.01 34.92 6.01C33.42 6.01 32.34 6.97 32.24 8.29L32.79 8.29C32.94 7 33.89 6.45 34.92 6.45C36.08 6.45 36.72 7.01 36.81 8.01C36.83 8.32 36.83 8.61 36.83 8.95L36.83 9.28L36.36 9.28C33.91 9.28 31.95 10.05 31.95 11.76C31.95 13.09 32.87 13.78 34.26 13.78C35.18 13.78 35.99 13.43 36.50 12.71L36.85 11.97ZM34.38 13.33C33.15 13.33 32.54 12.73 32.54 11.73C32.54 10.15 34.71 9.59 36.83 9.73L36.83 10.68C36.83 12.11 35.85 13.33 34.38 13.33ZM39.65 4.26C39.42 4.26 39.24 4.44 39.24 4.66C39.24 4.89 39.42 5.07 39.65 5.07C39.87 5.07 40.05 4.89 40.05 4.66C40.05 4.44 39.87 4.26 39.65 4.26ZM39.91 13.58L39.91 6.20L39.38 6.20L39.38 13.58Z"></path></g><!----><g data-v-423bf9ae="" id="4b7237af-6dd1-44fd-9dcb-09f4392ee6a4" transform="matrix(1.077222228050232,0,0,1.077222228050232,68.24209594726562,-0.3049928545951843)" stroke="none" fill="#ECEBE7"><path d="M64.008 72.381c4.002-3.149 12.23-11.582 15.089-21.179-6.511-8.01-33.912-42.187-40.238-50.08-.647 7.491-7.229 23.255-18.649 28.524-5.247 2.56-10.477 4.156-12.467 4.721l39.077 47.32c4.415-1.424 13.138-6.127 17.188-9.306zM90.405 75.352c-6.5 3.781-13.381 7.281-20.674 9.929-8.632 3.134-19.05 6.681-22.386 7.664v5.127l43.046-15.479.014-7.241zM6.891 35.865v14.223l38.812 47.857.033-15.043z"></path><path d="M88.717 70.42c-5.018 3.936-11.386 7.921-18.278 11.363-6.521 3.266-20.879 7.668-23.093 8.339v1.144c3.686-1.09 13.036-3.898 21.237-7.013 9.104-3.457 22.12-11.628 22.12-11.628l-1.986-2.205zM80.877 50.835l-.114.403c-2.851 10.142-11.25 18.858-15.762 22.409-4.225 3.319-13.009 8.054-17.655 9.561v2.168c6.53-2.034 15.656-6.36 20.721-9.922 8.699-6.128 17.195-14.63 22.419-22.404l.047.036C84.648 46.442 51.938 9.001 49.818 6.309c-.719 1.357-1.368 2.265-2.422 2.887C58.228 22.704 75.994 44.843 80.613 50.51l.264.325z"></path><path d="M87.321 59.925s-11.588 12.1-18.328 16.846c-5.696 4.008-14.5 7.942-21.647 10.168v1.498c.692-.212 1.838-.566 3.268-1.021 5.266-1.677 14.41-4.722 19.106-7.072 9.305-4.648 17.623-10.274 22.834-15.386l.161-.16-5.394-4.873z"></path></g><!----></svg>